HIERARCHY
ROOT Hips
{
    OFFSET   0.000000   0.000000   0.000000
    CHANNELS 6 Xposition Yposition Zposition Zrotation Xrotation Yrotation
    JOINT Chest
    {
        OFFSET   0.000000   8.007240   0.000000
        CHANNELS 3 Zrotation Xrotation Yrotation
        JOINT Chest2
        {
            OFFSET   0.000000  22.077100   0.000000
            CHANNELS 3 Zrotation Xrotation Yrotation
            JOINT Neck
            {
                OFFSET   0.000000  23.254800   0.000000
                CHANNELS 3 Zrotation Xrotation Yrotation
                JOINT Head
                {
                    OFFSET   0.000000  14.370000   1.956600
                    CHANNELS 3 Zrotation Xrotation Yrotation
                    End Site
                    {
                        OFFSET   0.000000  19.566000   0.000000
                    }
                }
            }
            JOINT LeftCollar
            {
                OFFSET   3.911900  19.017000  -0.467064
                CHANNELS 3 Zrotation Xrotation Yrotation
                JOINT LeftShoulder
                {
                    OFFSET  10.383700   0.000000   0.000000
                    CHANNELS 3 Zrotation Xrotation Yrotation
                    JOINT LeftElbow
                    {
                        OFFSET  26.662100   0.001476   0.000517
                        CHANNELS 3 Zrotation Xrotation Yrotation
                        JOINT LeftWrist
                        {
                            OFFSET  28.869000  -0.000025  -0.000106
                            CHANNELS 3 Zrotation Xrotation Yrotation
                            JOINT LeftFinger0
                            {
                                OFFSET   2.044660  -2.323460   3.252850
                                CHANNELS 3 Zrotation Xrotation Yrotation
                                JOINT LeftFinger01
                                {
                                    OFFSET   3.088130   0.000000   0.000000
                                    CHANNELS 3 Zrotation Xrotation Yrotation
                                    JOINT LeftFinger02
                                    {
                                        OFFSET   2.639460   0.000000   0.000000
                                        CHANNELS 3 Zrotation Xrotation Yrotation
                                        End Site
                                        {
                                            OFFSET   2.582190   0.000000   0.000000
                                        }
                                    }
                                }
                            }
                            JOINT LeftFinger1
                            {
                                OFFSET   8.364480   0.000000   3.252850
                                CHANNELS 3 Zrotation Xrotation Yrotation
                                JOINT LeftFinger11
                                {
                                    OFFSET   4.646930   0.000000   0.000000
                                    CHANNELS 3 Zrotation Xrotation Yrotation
                                    JOINT LeftFinger12
                                    {
                                        OFFSET   2.323460   0.000000   0.000000
                                        CHANNELS 3 Zrotation Xrotation Yrotation
                                        End Site
                                        {
                                            OFFSET   2.273050   0.000000   0.000000
                                        }
                                    }
                                }
                            }
                            JOINT LeftFinger2
                            {
                                OFFSET   8.364490   0.000015   1.078090
                                CHANNELS 3 Zrotation Xrotation Yrotation
                                JOINT LeftFinger21
                                {
                                    OFFSET   5.111620   0.000000   0.000000
                                    CHANNELS 3 Zrotation Xrotation Yrotation
                                    JOINT LeftFinger22
                                    {
                                        OFFSET   2.788160   0.000016   0.000000
                                        CHANNELS 3 Zrotation Xrotation Yrotation
                                        End Site
                                        {
                                            OFFSET   2.727660   0.000000   0.000000
                                        }
                                    }
                                }
                            }
                            JOINT LeftFinger3
                            {
                                OFFSET   7.899780   0.000017  -1.078090
                                CHANNELS 3 Zrotation Xrotation Yrotation
                                JOINT LeftFinger31
                                {
                                    OFFSET   4.646930   0.000000   0.000000
                                    CHANNELS 3 Zrotation Xrotation Yrotation
                                    JOINT LeftFinger32
                                    {
                                        OFFSET   2.323470   0.000000   0.000000
                                        CHANNELS 3 Zrotation Xrotation Yrotation
                                        End Site
                                        {
                                            OFFSET   2.273050   0.000000   0.000000
                                        }
                                    }
                                }
                            }
                            JOINT LeftFinger4
                            {
                                OFFSET   7.435090   0.000000  -3.252850
                                CHANNELS 3 Zrotation Xrotation Yrotation
                                JOINT LeftFinger41
                                {
                                    OFFSET   3.717550   0.000000   0.000000
                                    CHANNELS 3 Zrotation Xrotation Yrotation
                                    JOINT LeftFinger42
                                    {
                                        OFFSET   1.858770   0.000000   0.000000
                                        CHANNELS 3 Zrotation Xrotation Yrotation
                                        End Site
                                        {
                                            OFFSET   1.818440   0.000000   0.000000
                                        }
                                    }
                                }
                            }
                        }
                    }
                }
            }
            JOINT RightCollar
            {
                OFFSET  -3.911900  19.017000  -0.467063
                CHANNELS 3 Zrotation Xrotation Yrotation
                JOINT RightShoulder
                {
                    OFFSET -10.383700   0.000019   0.000000
                    CHANNELS 3 Zrotation Xrotation Yrotation
                    JOINT RightElbow
                    {
                        OFFSET -26.662100   0.001175   0.000102
                        CHANNELS 3 Zrotation Xrotation Yrotation
                        JOINT RightWrist
                        {
                            OFFSET -28.869000   0.000016  -0.000079
                            CHANNELS 3 Zrotation Xrotation Yrotation
                            JOINT RightFinger0
                            {
                                OFFSET  -2.044660  -2.323490   3.252850
                                CHANNELS 3 Zrotation Xrotation Yrotation
                                JOINT RightFinger01
                                {
                                    OFFSET  -3.088140   0.000000   0.000000
                                    CHANNELS 3 Zrotation Xrotation Yrotation
                                    JOINT RightFinger02
                                    {
                                        OFFSET  -2.639460   0.000000   0.000000
                                        CHANNELS 3 Zrotation Xrotation Yrotation
                                        End Site
                                        {
                                            OFFSET  -2.582190   0.000000   0.000000
                                        }
                                    }
                                }
                            }
                            JOINT RightFinger1
                            {
                                OFFSET  -8.364480   0.000000   3.252850
                                CHANNELS 3 Zrotation Xrotation Yrotation
                                JOINT RightFinger11
                                {
                                    OFFSET  -4.646930   0.000000   0.000000
                                    CHANNELS 3 Zrotation Xrotation Yrotation
                                    JOINT RightFinger12
                                    {
                                        OFFSET  -2.323470   0.000000   0.000000
                                        CHANNELS 3 Zrotation Xrotation Yrotation
                                        End Site
                                        {
                                            OFFSET  -2.273050   0.000000   0.000000
                                        }
                                    }
                                }
                            }
                            JOINT RightFinger2
                            {
                                OFFSET  -8.364480   0.000000   1.078090
                                CHANNELS 3 Zrotation Xrotation Yrotation
                                JOINT RightFinger21
                                {
                                    OFFSET  -5.111620   0.000000   0.000000
                                    CHANNELS 3 Zrotation Xrotation Yrotation
                                    JOINT RightFinger22
                                    {
                                        OFFSET  -2.788160   0.000000   0.000000
                                        CHANNELS 3 Zrotation Xrotation Yrotation
                                        End Site
                                        {
                                            OFFSET  -2.727660   0.000000   0.000000
                                        }
                                    }
                                }
                            }
                            JOINT RightFinger3
                            {
                                OFFSET  -7.899780   0.000000  -1.078090
                                CHANNELS 3 Zrotation Xrotation Yrotation
                                JOINT RightFinger31
                                {
                                    OFFSET  -4.646930   0.000000   0.000000
                                    CHANNELS 3 Zrotation Xrotation Yrotation
                                    JOINT RightFinger32
                                    {
                                        OFFSET  -2.323470   0.000000   0.000000
                                        CHANNELS 3 Zrotation Xrotation Yrotation
                                        End Site
                                        {
                                            OFFSET  -2.273050   0.000000   0.000000
                                        }
                                    }
                                }
                            }
                            JOINT RightFinger4
                            {
                                OFFSET  -7.435090   0.000000  -3.252850
                                CHANNELS 3 Zrotation Xrotation Yrotation
                                JOINT RightFinger41
                                {
                                    OFFSET  -3.717550   0.000000   0.000000
                                    CHANNELS 3 Zrotation Xrotation Yrotation
                                    JOINT RightFinger42
                                    {
                                        OFFSET  -1.858770   0.000000   0.000000
                                        CHANNELS 3 Zrotation Xrotation Yrotation
                                        End Site
                                        {
                                            OFFSET  -1.818440   0.000000   0.000000
                                        }
                                    }
                                }
                            }
                        }
                    }
                }
            }
        }
    }
    JOINT LeftHip
    {
        OFFSET   9.783040   0.000000   0.000000
        CHANNELS 3 Zrotation Xrotation Yrotation
        JOINT LeftKnee
        {
            OFFSET   0.000032 -41.789100  -0.002222
            CHANNELS 3 Zrotation Xrotation Yrotation
            JOINT LeftAnkle
            {
                OFFSET   0.000087 -41.133200  -0.000135
                CHANNELS 3 Zrotation Xrotation Yrotation
                JOINT LeftToe
                {
                    OFFSET   0.000000  -6.358960  14.674500
                    CHANNELS 3 Zrotation Xrotation Yrotation
                    End Site
                    {
                        OFFSET   0.000000   0.000000   3.913200
                    }
                }
            }
        }
    }
    JOINT RightHip
    {
        OFFSET  -9.783040   0.000000   0.000000
        CHANNELS 3 Zrotation Xrotation Yrotation
        JOINT RightKnee
        {
            OFFSET   0.000047 -41.789100  -0.000896
            CHANNELS 3 Zrotation Xrotation Yrotation
            JOINT RightAnkle
            {
                OFFSET  -0.000117 -41.133300  -0.000248
                CHANNELS 3 Zrotation Xrotation Yrotation
                JOINT RightToe
                {
                    OFFSET   0.000000  -6.358970  14.674500
                    CHANNELS 3 Zrotation Xrotation Yrotation
                    End Site
                    {
                        OFFSET   0.000000   0.000000   3.913200
                    }
                }
            }
        }
    }
}
MOTION
Frames: 4
Frame Time:   0.016667
 -0.346685  89.462900   2.960270  -1.378570  -5.235730   6.580950   1.564820   4.313190  -0.937462   3.214090   8.598480  -2.001600  -1.538550  -4.823690  -0.129439  -2.578240  -9.760730   0.306605  -6.598410   0.619675  -2.233410 -51.185500  28.849500 -63.261200  -4.397030   4.562610 -119.224000  23.434600  25.080600   1.511450  47.120100  30.861900 -64.823100 -13.772400  -0.003423  -0.000567  -1.886200  -0.002201   0.001617 -14.008000  -1.339650   5.370730 -11.507300   0.003691  -0.002014  -8.055150   0.003697   0.001391 -27.854600  -4.177200   7.851860 -33.355700  -0.000452   0.001043 -22.214900  -0.000585   0.001217 -47.693200  -6.578850   5.985210 -54.382700  -0.003330  -0.000198 -39.356500  -0.001463  -0.000588 -56.784700  -7.840250   5.101560 -85.703300  -0.003918  -0.000000 -57.078400  -0.000123  -0.003028   7.944400  -0.822710  10.786800  71.438100  20.794500   3.524660  -0.544495   2.204410  12.033900 -16.832500 -14.925000  -0.854068 -40.460400  40.907300  78.117800  33.467100  -0.026349   0.000389  11.733600  -0.026167   0.006107  30.234100   4.759130   8.101990  25.012900   0.014285  -0.001172  17.509600   0.009942  -0.002472  28.021600   3.123920   5.848520  33.206800   0.017611   0.000102  22.115800   0.011792  -0.000896  28.222400   1.725770   3.210830  34.021000   0.011379   0.003359  22.657900   0.007737  -0.000427  34.249900   0.413895   0.601024  51.377200  -0.002398  -0.003951  34.217800   0.017195  -0.005411   3.591970   8.587580   4.230480   0.395608   0.824065  10.191000  -4.649510  -3.309160  -0.252841   0.000000   0.000000   0.000000   1.577440   5.232780  -9.832820   1.926440   3.457640  -7.981230  -5.625550  -2.999900  -3.293850   0.000000   0.000000  -0.000000
 -0.350547  89.462800   2.970360  -1.382440  -5.228440   6.575790   1.565490   4.306700  -0.931289   3.214810   8.585660  -1.989040  -1.504450  -4.832330  -0.127468  -2.521170  -9.779010   0.262738  -6.614540   0.617816  -2.224060 -51.323600  28.874800 -63.066500  -4.133510   4.736990 -119.255000  24.108900  26.640400   0.654270  46.632600  30.053700 -64.273100 -14.414400  -0.003349  -0.000639  -2.207240  -0.002147   0.001659 -13.590500  -1.475280   6.078360 -11.176800   0.003630  -0.001843  -7.823780   0.003708   0.001442 -27.988100  -4.163490   7.769380 -34.077800   0.004407  -0.007402 -22.695800   0.004786   0.001097 -49.929800  -6.755740   5.667110 -54.143200  -0.003219  -0.000056 -39.762000  -0.001455  -0.000905 -57.769600  -8.050650   5.050410 -87.187800  -0.003853  -0.000334 -58.067100  -0.000502  -0.002708   7.957160  -0.818130  10.801600  71.437500  20.793600   3.519360  -0.539572   2.199170  11.997700 -16.833900 -14.939800  -0.859456 -40.456600  40.898300  78.101800  33.468000  -0.020114   0.000341  11.733300  -0.021758   0.006107  30.235000   4.760220   8.103540  25.013800   0.025869  -0.001111  17.510000   0.017903  -0.002629  28.020700   3.127950   5.855800  33.208300   0.019262   0.000089  22.116800   0.014178  -0.001504  28.221800   1.732070   3.220170  34.021300   0.016263   0.003825  22.658100   0.010888  -0.000763  34.249500   0.414294   0.599791  51.375800  -0.002397  -0.003951  34.217400   0.021257  -0.007654   3.597760   8.598750   4.233860   0.393224   0.795572  10.190100  -4.647080  -3.301820  -0.248047   0.000000   0.000000  -0.000000   1.582560   5.226470  -9.826950   1.926840   3.461260  -7.980760  -5.625430  -3.002270  -3.296010  -0.000000   0.000000   0.000000
 -0.354538  89.462700   2.980760  -1.385470  -5.220520   6.574010   1.566060   4.299810  -0.923759   3.215220   8.572050  -1.973730  -1.470600  -4.836240  -0.124252  -2.464590  -9.787320   0.216203  -6.630040   0.617554  -2.215130 -51.474300  28.895700 -62.862700  -3.878140   4.943750 -119.293000  24.622200  27.883300  -0.045367  46.020100  28.844600 -63.274300 -15.063500  -0.003271  -0.000704  -2.531780  -0.002089   0.001700 -13.408000  -1.612790   6.732190 -11.045000   0.003569  -0.001565  -7.731490   0.003712   0.001487 -28.120100  -4.115520   7.641950 -34.857700   0.009403  -0.015942 -23.215200   0.010184   0.000974 -51.273800  -6.795090   5.401490 -53.903600  -0.003109   0.000086 -39.945700  -0.001435  -0.001177 -58.368500  -8.210010   5.031710 -88.093500  -0.003695  -0.000410 -58.670200  -0.000942  -0.002046   7.968480  -0.808705  10.811700  71.439500  20.786800   3.513670  -0.535307   2.197250  11.967100 -16.835000 -14.961500  -0.862233 -40.456300  40.894500  78.096700  33.468300  -0.011584   0.000316  11.732900  -0.015119   0.006106  30.239700   4.763730   8.107910  25.018000   0.030885  -0.001055  17.512600   0.021339  -0.002786  28.019200   3.134110   5.867450  33.214100   0.020526   0.000000  22.120600   0.015289  -0.002183  28.221100   1.738560   3.234610  34.023100   0.018085   0.003967  22.659400   0.012001  -0.001007  34.249100   0.414712   0.598572  51.374400  -0.002396  -0.003951  34.217100   0.023724  -0.009512   3.602840   8.609890   4.239400   0.390864   0.767084  10.187400  -4.644840  -3.294480  -0.246450   0.000000   0.000000  -0.000000   1.587700   5.220020  -9.816970   1.927130   3.463860  -7.980710  -5.625410  -3.004190  -3.296810  -0.000000   0.000000   0.000000
 -0.359741  89.462600   2.991030  -1.387590  -5.211470   6.574610   1.566470   4.294600  -0.913097   3.215130   8.561990  -1.952200  -1.442600  -4.835470  -0.121750  -2.417680  -9.785970   0.157796  -6.641150   0.632842  -2.209870 -51.633500  28.894300 -62.660500  -3.652950   5.224350 -119.334000  24.964400  28.777200  -0.519599  45.846200  28.205300 -62.038200 -15.501100  -0.003173  -0.000764  -2.750590  -0.002028   0.001745 -13.417300  -1.688460   7.071220 -11.064700   0.003509  -0.001234  -7.745290   0.003708   0.001525 -28.265900  -3.993490   7.410690 -36.599300   0.009563  -0.016053 -24.375100   0.010314   0.000851 -52.060600  -6.664670   5.155490 -53.947900  -0.003001   0.000223 -40.102500  -0.001405  -0.001467 -58.801000  -8.363990   5.019090 -88.748700  -0.003469  -0.000468 -59.106600  -0.001396  -0.001134   7.977360  -0.793810  10.814300  71.443500  20.755200   3.507780  -0.534002   2.203890  11.954900 -16.844300 -14.974400  -0.857118 -40.460800  40.913200  78.132000  33.468700  -0.009103   0.000330  11.733900  -0.011262   0.006105  30.250700   4.771030   8.117070  25.027700   0.025510  -0.000994  17.519400   0.017576  -0.002859  28.018100   3.138650   5.877580  33.227500   0.022859  -0.000137  22.129500   0.016579  -0.002576  28.220900   1.738780   3.244550  34.031100  -0.014759   0.004254  22.664800  -0.009409   0.003533  34.250800   0.415133   0.597368  51.378000  -0.002398  -0.003948  34.218700   0.026437  -0.010575   3.608530   8.596470   4.244630   0.390543   0.787517  10.181800  -4.646480  -3.307480  -0.251324  -0.000000   0.000000   0.000000   1.598860   5.214630  -9.806240   1.926890   3.459900  -7.994480  -5.629960  -3.006430  -3.295300  -0.000000   0.000000  -0.000000
